<svg xmlns="http://www.w3.org/2000/svg" version="1.1" xmlns:xlink="http://www.w3.org/1999/xlink" xmlns:svgjs="http://svgjs.dev/svgjs" width="2000" height="1247" viewBox="0 0 2000 1247"><g transform="matrix(1,0,0,1,-1.2121212121212466,0.504858299595071)"><svg viewBox="0 0 396 247" data-background-color="#ffffff" preserveAspectRatio="xMidYMid meet" height="1247" width="2000" xmlns="http://www.w3.org/2000/svg" xmlns:xlink="http://www.w3.org/1999/xlink"><g id="tight-bounds" transform="matrix(1,0,0,1,0.2400000000000091,-0.09999999999999432)"><svg viewBox="0 0 395.52 247.2" height="247.2" width="395.52"><g><svg></svg></g><g><svg viewBox="0 0 395.52 247.2" height="247.2" width="395.52"><g transform="matrix(1,0,0,1,75.54432,73.63020792951542)"><svg viewBox="0 0 244.43135999999998 99.93958414096915" height="99.93958414096915" width="244.43135999999998"><g><svg viewBox="0 0 244.43135999999998 99.93958414096915" height="99.93958414096915" width="244.43135999999998"><g><svg viewBox="0 0 244.43135999999998 99.93958414096915" height="99.93958414096915" width="244.43135999999998"><g id="textblocktransform"><svg viewBox="0 0 244.43135999999998 99.93958414096915" height="99.93958414096915" width="244.43135999999998" id="textblock"><g><svg viewBox="0 0 244.43135999999998 99.93958414096915" height="99.93958414096915" width="244.43135999999998"><g transform="matrix(1,0,0,1,0,0)"><svg width="244.43135999999998" viewBox="5.32 -35.77 88.66999999999999 36.260000000000005" height="99.93958414096915" data-palette-color="#383aa3"><g class="wordmark-text-0" data-fill-palette-color="primary" id="text-0"><path d="M25.95 0L5.32 0 5.32-35.77 26.29-35.77 25.56-31.98 10.11-31.98 10.11-20.56 23.88-20.56 23.14-16.77 10.11-16.77 10.11-3.78 26.68-3.78 25.95 0ZM34.96-35.77L39.74-35.77 39.74-13.55Q39.74-10.89 40.62-8.95 41.5-7.01 42.91-5.75 44.31-4.49 46.04-3.89 47.78-3.3 49.51-3.3L49.51-3.3Q51.27-3.3 52.85-3.92 54.44-4.54 55.62-5.77 56.81-7.01 57.52-8.85 58.23-10.69 58.23-13.16L58.23-13.16 58.23-35.77 62.62-35.77 62.62-13.21Q62.62-11.72 62.25-10.12 61.89-8.52 61.14-7.01 60.4-5.49 59.25-4.13 58.1-2.76 56.54-1.73 54.98-0.71 52.98-0.11 50.97 0.49 48.51 0.49L48.51 0.49Q45.51 0.49 43.02-0.45 40.52-1.39 38.73-3.19 36.94-4.98 35.95-7.6 34.96-10.23 34.96-13.57L34.96-13.57 34.96-35.77ZM77.8 0L73.02 0 73.02-35.77 93.99-35.77 93.26-31.98 77.8-31.98 77.8-20.56 91.57-20.56 90.84-16.77 77.8-16.77 77.8 0Z" fill="#383aa3" data-fill-palette-color="primary"></path></g></svg></g></svg></g></svg></g></svg></g></svg></g></svg></g><g><path d="M245.816 0c68.262 0 123.6 55.338 123.6 123.6 0 68.262-55.338 123.6-123.6 123.6-45.763 0-85.718-24.871-107.084-61.834h5.239c20.889 34.37 58.686 57.327 101.845 57.328 65.774 0 119.094-53.32 119.093-119.094 0-65.774-53.32-119.094-119.093-119.094-43.159 0-80.956 22.958-101.845 57.328l-5.239 0c21.366-36.963 61.321-61.834 107.084-61.834z" fill="#383aa3" stroke="transparent" data-fill-palette-color="tertiary"></path></g></svg></g><defs></defs></svg><rect width="395.52" height="247.2" fill="none" stroke="none" visibility="hidden"></rect></g></svg></g></svg>