<svg width="63" height="40" viewBox="0 0 63 40" fill="none" xmlns="http://www.w3.org/2000/svg">
<g clip-path="url(#clip0_2125_1216)">
<g clip-path="url(#clip1_2125_1216)">
<g clip-path="url(#clip2_2125_1216)">
<g clip-path="url(#clip3_2125_1216)">
<g clip-path="url(#clip4_2125_1216)">
<g clip-path="url(#clip5_2125_1216)">
<g clip-path="url(#clip6_2125_1216)">
<g clip-path="url(#clip7_2125_1216)">
<g clip-path="url(#clip8_2125_1216)">
<path d="M21.1183 27.4381H12.083V11.7217H21.2672L20.9475 13.3869H14.1809V18.4045H20.2117L19.8876 20.0698H14.1809V25.7772H21.438L21.1183 27.4381ZM25.0643 11.7217H27.1578V21.4845C27.1578 22.2637 27.2863 22.9374 27.5432 23.5057C27.8002 24.0739 28.1345 24.5426 28.5462 24.9117C28.955 25.2807 29.4119 25.5531 29.917 25.7289C30.4251 25.9017 30.9316 25.9881 31.4368 25.9881C31.9506 25.9881 32.4382 25.8973 32.8996 25.7157C33.3638 25.5341 33.7682 25.2632 34.1127 24.9029C34.4602 24.5397 34.7376 24.0886 34.9449 23.5496C35.1522 23.0106 35.2558 22.3794 35.2558 21.6559V11.7217H37.1785V21.6339C37.1785 22.0704 37.1245 22.5229 37.0165 22.9916C36.9114 23.4603 36.7493 23.9157 36.5303 24.358C36.3143 24.8033 36.0383 25.2251 35.7026 25.6234C35.3668 26.0247 34.9712 26.3762 34.5157 26.6779C34.0602 26.9767 33.5405 27.214 32.9565 27.3897C32.3696 27.5655 31.7171 27.6533 30.9988 27.6533C30.1229 27.6533 29.3214 27.5157 28.5944 27.2403C27.8644 26.965 27.2381 26.5637 26.7155 26.0365C26.1928 25.5121 25.787 24.8663 25.4979 24.0988C25.2089 23.3284 25.0643 22.4541 25.0643 21.4758V11.7217ZM43.8269 27.4381H41.7334V11.7217H50.9175L50.5978 13.3869H43.8269V18.4045H49.8577L49.5379 20.0698H43.8269V27.4381Z" fill="#4B3A88"/>
</g>
</g>
</g>
</g>
</g>
</g>
<path d="M39.1362 -0.0159302C49.9833 -0.0159302 58.7766 8.80566 58.7766 19.6875C58.7766 30.5694 49.9833 39.3909 39.1362 39.3909C31.8644 39.3909 25.5154 35.4262 22.1203 29.5338H22.9528C26.2721 35.0128 32.2782 38.6725 39.1362 38.6726C49.5879 38.6726 58.0606 30.1727 58.0605 19.6875C58.0605 9.20228 49.5878 0.702385 39.1362 0.702385C32.2782 0.702385 26.2721 4.36219 22.9528 9.84121H22.1203C25.5154 3.94883 31.8644 -0.0159302 39.1362 -0.0159302Z" fill="#4B3A88"/>
</g>
</g>
</g>
<defs>
<clipPath id="clip0_2125_1216">
<rect width="63" height="39.375" fill="white"/>
</clipPath>
<clipPath id="clip1_2125_1216">
<rect width="62.8492" height="39.4069" fill="white" transform="translate(0.0753784 -0.0159302)"/>
</clipPath>
<clipPath id="clip2_2125_1216">
<rect width="62.8492" height="39.4069" fill="white" transform="translate(0.0753784 -0.0159302)"/>
</clipPath>
<clipPath id="clip3_2125_1216">
<rect width="38.8408" height="15.9317" fill="white" transform="translate(12.0796 11.7217)"/>
</clipPath>
<clipPath id="clip4_2125_1216">
<rect width="38.8408" height="15.9317" fill="white" transform="translate(12.0796 11.7217)"/>
</clipPath>
<clipPath id="clip5_2125_1216">
<rect width="38.8408" height="15.9317" fill="white" transform="translate(12.0796 11.7217)"/>
</clipPath>
<clipPath id="clip6_2125_1216">
<rect width="38.8408" height="15.9317" fill="white" transform="translate(12.0796 11.7217)"/>
</clipPath>
<clipPath id="clip7_2125_1216">
<rect width="38.8408" height="15.9317" fill="white" transform="translate(12.0796 11.7217)"/>
</clipPath>
<clipPath id="clip8_2125_1216">
<rect width="38.8408" height="15.9317" fill="white" transform="translate(12.0796 11.7217)"/>
</clipPath>
</defs>
</svg>
